<mxfile host="app.diagrams.net" modified="2023-02-21T11:46:21.792Z" agent="5.0 (Windows NT 10.0; Win64; x64) AppleWebKit/537.36 (KHTML, like Gecko) Chrome/110.0.0.0 Safari/537.36" etag="pFN5V61IPUzyKkkUj1tg" version="20.8.21" type="github">
  <diagram name="Page-1" id="kksrU-J7RmdfJkJG-z9g">
    <mxGraphModel dx="504" dy="469" grid="1" gridSize="10" guides="1" tooltips="1" connect="1" arrows="1" fold="1" page="1" pageScale="1" pageWidth="827" pageHeight="1169" math="0" shadow="0">
      <root>
        <mxCell id="0" />
        <mxCell id="1" parent="0" />
        <mxCell id="RxlpYsVskv-hnWhugoj_-2" value="" style="rounded=0;whiteSpace=wrap;html=1;fillColor=#000000;" vertex="1" parent="1">
          <mxGeometry x="240" y="310" width="70" height="560" as="geometry" />
        </mxCell>
        <mxCell id="RxlpYsVskv-hnWhugoj_-3" value="&lt;font style=&quot;font-size: 10px;&quot; color=&quot;#ffffff&quot; face=&quot;Times New Roman&quot;&gt;С&lt;br&gt;и&lt;br&gt;с&lt;br&gt;т&lt;br&gt;е&lt;br&gt;м&lt;br&gt;а&lt;br&gt;&lt;br&gt;м&lt;br&gt;и&lt;br&gt;к&lt;br&gt;р&lt;br&gt;о&lt;br&gt;в&lt;br&gt;о&lt;br&gt;л&lt;br&gt;н&lt;br&gt;о&lt;br&gt;в&lt;br&gt;к&lt;br&gt;а&lt;br&gt;&amp;nbsp;&lt;/font&gt;" style="text;html=1;strokeColor=none;fillColor=none;align=center;verticalAlign=middle;whiteSpace=wrap;rounded=0;rotation=0;" vertex="1" parent="1">
          <mxGeometry x="220" y="509.71" width="105.6" height="10.22" as="geometry" />
        </mxCell>
        <mxCell id="RxlpYsVskv-hnWhugoj_-4" value="&lt;font face=&quot;Times New Roman&quot;&gt;&lt;b&gt;Желательные входы&amp;nbsp;&lt;/b&gt;&lt;/font&gt;" style="text;html=1;strokeColor=none;fillColor=none;align=center;verticalAlign=middle;whiteSpace=wrap;rounded=0;" vertex="1" parent="1">
          <mxGeometry x="80" y="290" width="140" height="30" as="geometry" />
        </mxCell>
        <mxCell id="RxlpYsVskv-hnWhugoj_-5" value="&lt;font face=&quot;Times New Roman&quot;&gt;&lt;b&gt;Желательные выходы&amp;nbsp;&lt;/b&gt;&lt;/font&gt;" style="text;html=1;strokeColor=none;fillColor=none;align=center;verticalAlign=middle;whiteSpace=wrap;rounded=0;" vertex="1" parent="1">
          <mxGeometry x="340" y="290" width="140" height="30" as="geometry" />
        </mxCell>
        <mxCell id="RxlpYsVskv-hnWhugoj_-6" value="&lt;font style=&quot;font-size: 10px;&quot;&gt;Подключение сетевого кабеля к&lt;br&gt;розетке&lt;/font&gt;" style="text;html=1;strokeColor=none;fillColor=none;align=left;verticalAlign=middle;whiteSpace=wrap;rounded=0;fontFamily=Times New Roman;" vertex="1" parent="1">
          <mxGeometry x="50" y="330" width="170" height="30" as="geometry" />
        </mxCell>
        <mxCell id="RxlpYsVskv-hnWhugoj_-7" value="" style="endArrow=classic;html=1;rounded=0;fontFamily=Times New Roman;fontSize=10;entryX=-0.014;entryY=0.088;entryDx=0;entryDy=0;entryPerimeter=0;" edge="1" parent="1" target="RxlpYsVskv-hnWhugoj_-2">
          <mxGeometry width="50" height="50" relative="1" as="geometry">
            <mxPoint x="50" y="360" as="sourcePoint" />
            <mxPoint x="190" y="370" as="targetPoint" />
          </mxGeometry>
        </mxCell>
        <mxCell id="RxlpYsVskv-hnWhugoj_-9" value="" style="endArrow=classic;html=1;rounded=0;fontFamily=Times New Roman;fontSize=10;entryX=0;entryY=0.152;entryDx=0;entryDy=0;entryPerimeter=0;" edge="1" parent="1">
          <mxGeometry width="50" height="50" relative="1" as="geometry">
            <mxPoint x="50" y="450" as="sourcePoint" />
            <mxPoint x="240" y="450" as="targetPoint" />
          </mxGeometry>
        </mxCell>
        <mxCell id="RxlpYsVskv-hnWhugoj_-10" value="&lt;font style=&quot;font-size: 10px;&quot;&gt;Устройство подключено к эл.сети.&amp;nbsp;&amp;nbsp;&lt;/font&gt;" style="text;html=1;strokeColor=none;fillColor=none;align=center;verticalAlign=middle;whiteSpace=wrap;rounded=0;fontFamily=Times New Roman;" vertex="1" parent="1">
          <mxGeometry x="310" y="330" width="170" height="30" as="geometry" />
        </mxCell>
        <mxCell id="RxlpYsVskv-hnWhugoj_-11" value="" style="endArrow=classic;html=1;rounded=0;fontFamily=Times New Roman;fontSize=10;entryX=0;entryY=0.152;entryDx=0;entryDy=0;entryPerimeter=0;" edge="1" parent="1">
          <mxGeometry width="50" height="50" relative="1" as="geometry">
            <mxPoint x="310" y="360" as="sourcePoint" />
            <mxPoint x="500" y="360" as="targetPoint" />
          </mxGeometry>
        </mxCell>
        <mxCell id="RxlpYsVskv-hnWhugoj_-14" value="Открыть дверцу, поставить тарелку с едой на платформу, закрыть дверцу&amp;nbsp;" style="text;html=1;strokeColor=none;fillColor=none;align=left;verticalAlign=middle;whiteSpace=wrap;rounded=0;fontSize=10;fontFamily=Times New Roman;" vertex="1" parent="1">
          <mxGeometry x="50" y="420" width="190" height="30" as="geometry" />
        </mxCell>
        <mxCell id="RxlpYsVskv-hnWhugoj_-15" value="&lt;span style=&quot;font-size: 10px;&quot;&gt;Выбрать режим&amp;nbsp; разогрева, нажать на кнопку&amp;nbsp;&lt;/span&gt;" style="text;html=1;strokeColor=none;fillColor=none;align=left;verticalAlign=middle;whiteSpace=wrap;rounded=0;fontFamily=Times New Roman;" vertex="1" parent="1">
          <mxGeometry x="50" y="450" width="170" height="30" as="geometry" />
        </mxCell>
        <mxCell id="RxlpYsVskv-hnWhugoj_-16" value="" style="endArrow=classic;html=1;rounded=0;fontFamily=Times New Roman;fontSize=10;entryX=0;entryY=0.152;entryDx=0;entryDy=0;entryPerimeter=0;" edge="1" parent="1">
          <mxGeometry width="50" height="50" relative="1" as="geometry">
            <mxPoint x="50" y="480" as="sourcePoint" />
            <mxPoint x="240" y="480" as="targetPoint" />
          </mxGeometry>
        </mxCell>
        <mxCell id="RxlpYsVskv-hnWhugoj_-19" value="&lt;span style=&quot;font-size: 10px;&quot;&gt;Поворотным регулятором настроить таймер&lt;/span&gt;" style="text;html=1;strokeColor=none;fillColor=none;align=left;verticalAlign=middle;whiteSpace=wrap;rounded=0;fontFamily=Times New Roman;" vertex="1" parent="1">
          <mxGeometry x="50" y="480" width="170" height="30" as="geometry" />
        </mxCell>
        <mxCell id="RxlpYsVskv-hnWhugoj_-20" value="" style="endArrow=classic;html=1;rounded=0;fontFamily=Times New Roman;fontSize=10;entryX=0;entryY=0.152;entryDx=0;entryDy=0;entryPerimeter=0;" edge="1" parent="1">
          <mxGeometry width="50" height="50" relative="1" as="geometry">
            <mxPoint x="50" y="510" as="sourcePoint" />
            <mxPoint x="240" y="510" as="targetPoint" />
          </mxGeometry>
        </mxCell>
        <mxCell id="RxlpYsVskv-hnWhugoj_-23" value="&lt;span style=&quot;font-size: 10px;&quot;&gt;Нажать кнопку &quot;Старт&quot;&lt;/span&gt;" style="text;html=1;strokeColor=none;fillColor=none;align=left;verticalAlign=middle;whiteSpace=wrap;rounded=0;fontFamily=Times New Roman;" vertex="1" parent="1">
          <mxGeometry x="50" y="509.71" width="170" height="30" as="geometry" />
        </mxCell>
        <mxCell id="RxlpYsVskv-hnWhugoj_-24" value="" style="endArrow=classic;html=1;rounded=0;fontFamily=Times New Roman;fontSize=10;entryX=0;entryY=0.152;entryDx=0;entryDy=0;entryPerimeter=0;" edge="1" parent="1">
          <mxGeometry width="50" height="50" relative="1" as="geometry">
            <mxPoint x="50" y="539.71" as="sourcePoint" />
            <mxPoint x="240" y="539.71" as="targetPoint" />
          </mxGeometry>
        </mxCell>
        <mxCell id="RxlpYsVskv-hnWhugoj_-25" value="&lt;span style=&quot;font-size: 10px;&quot;&gt;Устройство издает звуковой сигнал начала, внутри загорается свет, на панели таймера отображается обратный отсчет времени,&lt;/span&gt;" style="text;html=1;strokeColor=none;fillColor=none;align=left;verticalAlign=middle;whiteSpace=wrap;rounded=0;fontFamily=Times New Roman;" vertex="1" parent="1">
          <mxGeometry x="320" y="430" width="170" height="30" as="geometry" />
        </mxCell>
        <mxCell id="RxlpYsVskv-hnWhugoj_-26" value="" style="endArrow=classic;html=1;rounded=0;fontFamily=Times New Roman;fontSize=10;entryX=0;entryY=0.152;entryDx=0;entryDy=0;entryPerimeter=0;" edge="1" parent="1">
          <mxGeometry width="50" height="50" relative="1" as="geometry">
            <mxPoint x="310" y="480" as="sourcePoint" />
            <mxPoint x="500" y="480" as="targetPoint" />
          </mxGeometry>
        </mxCell>
        <mxCell id="RxlpYsVskv-hnWhugoj_-30" value="&lt;font style=&quot;font-size: 10px;&quot;&gt;По истечению времени на таймере издается звуковой сигнал, еда разогрета&amp;nbsp;&amp;nbsp;&lt;/font&gt;" style="text;html=1;strokeColor=none;fillColor=none;align=left;verticalAlign=middle;whiteSpace=wrap;rounded=0;fontFamily=Times New Roman;" vertex="1" parent="1">
          <mxGeometry x="320" y="489.93" width="170" height="30" as="geometry" />
        </mxCell>
        <mxCell id="RxlpYsVskv-hnWhugoj_-31" value="" style="endArrow=classic;html=1;rounded=0;fontFamily=Times New Roman;fontSize=10;entryX=0;entryY=0.152;entryDx=0;entryDy=0;entryPerimeter=0;" edge="1" parent="1">
          <mxGeometry width="50" height="50" relative="1" as="geometry">
            <mxPoint x="310" y="530" as="sourcePoint" />
            <mxPoint x="500" y="530" as="targetPoint" />
          </mxGeometry>
        </mxCell>
        <mxCell id="RxlpYsVskv-hnWhugoj_-32" value="&lt;font style=&quot;font-size: 10px;&quot;&gt;Габариты&lt;/font&gt;" style="text;html=1;strokeColor=none;fillColor=none;align=left;verticalAlign=middle;whiteSpace=wrap;rounded=0;fontFamily=Times New Roman;" vertex="1" parent="1">
          <mxGeometry x="320" y="554" width="170" height="30" as="geometry" />
        </mxCell>
        <mxCell id="RxlpYsVskv-hnWhugoj_-33" value="" style="endArrow=classic;html=1;rounded=0;fontFamily=Times New Roman;fontSize=10;entryX=0;entryY=0.152;entryDx=0;entryDy=0;entryPerimeter=0;" edge="1" parent="1">
          <mxGeometry width="50" height="50" relative="1" as="geometry">
            <mxPoint x="310" y="585" as="sourcePoint" />
            <mxPoint x="500" y="585" as="targetPoint" />
          </mxGeometry>
        </mxCell>
        <mxCell id="RxlpYsVskv-hnWhugoj_-36" value="&lt;span style=&quot;font-size: 10px;&quot;&gt;Химический состав материалов изделия&lt;/span&gt;" style="text;html=1;strokeColor=none;fillColor=none;align=left;verticalAlign=middle;whiteSpace=wrap;rounded=0;fontFamily=Times New Roman;" vertex="1" parent="1">
          <mxGeometry x="320" y="593.93" width="170" height="30" as="geometry" />
        </mxCell>
        <mxCell id="RxlpYsVskv-hnWhugoj_-37" value="" style="endArrow=classic;html=1;rounded=0;fontFamily=Times New Roman;fontSize=10;entryX=0;entryY=0.152;entryDx=0;entryDy=0;entryPerimeter=0;" edge="1" parent="1">
          <mxGeometry width="50" height="50" relative="1" as="geometry">
            <mxPoint x="310" y="629" as="sourcePoint" />
            <mxPoint x="500" y="629" as="targetPoint" />
          </mxGeometry>
        </mxCell>
        <mxCell id="RxlpYsVskv-hnWhugoj_-38" value="&lt;font style=&quot;font-size: 10px;&quot;&gt;Повторное нажатие кнопки &quot;Старт&quot;&amp;nbsp;&lt;/font&gt;" style="text;html=1;strokeColor=none;fillColor=none;align=left;verticalAlign=middle;whiteSpace=wrap;rounded=0;fontFamily=Times New Roman;" vertex="1" parent="1">
          <mxGeometry x="50" y="644.93" width="170" height="30" as="geometry" />
        </mxCell>
        <mxCell id="RxlpYsVskv-hnWhugoj_-39" value="" style="endArrow=classic;html=1;rounded=0;fontFamily=Times New Roman;fontSize=10;entryX=0;entryY=0.152;entryDx=0;entryDy=0;entryPerimeter=0;" edge="1" parent="1">
          <mxGeometry width="50" height="50" relative="1" as="geometry">
            <mxPoint x="50" y="671" as="sourcePoint" />
            <mxPoint x="240" y="671" as="targetPoint" />
          </mxGeometry>
        </mxCell>
        <mxCell id="RxlpYsVskv-hnWhugoj_-40" value="&lt;font style=&quot;font-size: 10px;&quot;&gt;Продлевает таймер на 30 секунд&lt;/font&gt;" style="text;html=1;strokeColor=none;fillColor=none;align=left;verticalAlign=middle;whiteSpace=wrap;rounded=0;fontFamily=Times New Roman;" vertex="1" parent="1">
          <mxGeometry x="320" y="644.93" width="170" height="30" as="geometry" />
        </mxCell>
        <mxCell id="RxlpYsVskv-hnWhugoj_-41" value="" style="endArrow=classic;html=1;rounded=0;fontFamily=Times New Roman;fontSize=10;entryX=0;entryY=0.152;entryDx=0;entryDy=0;entryPerimeter=0;" edge="1" parent="1">
          <mxGeometry width="50" height="50" relative="1" as="geometry">
            <mxPoint x="310" y="669.55" as="sourcePoint" />
            <mxPoint x="500" y="669.55" as="targetPoint" />
          </mxGeometry>
        </mxCell>
        <mxCell id="RxlpYsVskv-hnWhugoj_-44" value="&lt;font style=&quot;font-size: 10px;&quot;&gt;Прибор не используется в течение&lt;br/&gt;5 минут&lt;/font&gt;" style="text;html=1;strokeColor=none;fillColor=none;align=left;verticalAlign=middle;whiteSpace=wrap;rounded=0;fontFamily=Times New Roman;" vertex="1" parent="1">
          <mxGeometry x="50" y="680" width="170" height="30" as="geometry" />
        </mxCell>
        <mxCell id="RxlpYsVskv-hnWhugoj_-45" value="" style="endArrow=classic;html=1;rounded=0;fontFamily=Times New Roman;fontSize=10;entryX=0;entryY=0.152;entryDx=0;entryDy=0;entryPerimeter=0;" edge="1" parent="1">
          <mxGeometry width="50" height="50" relative="1" as="geometry">
            <mxPoint x="50" y="716.07" as="sourcePoint" />
            <mxPoint x="240" y="716.07" as="targetPoint" />
          </mxGeometry>
        </mxCell>
        <mxCell id="RxlpYsVskv-hnWhugoj_-46" value="&lt;span style=&quot;font-size: 10px;&quot;&gt;Таймер сменяется электронными часами&lt;/span&gt;" style="text;html=1;strokeColor=none;fillColor=none;align=left;verticalAlign=middle;whiteSpace=wrap;rounded=0;fontFamily=Times New Roman;" vertex="1" parent="1">
          <mxGeometry x="320" y="680" width="170" height="30" as="geometry" />
        </mxCell>
        <mxCell id="RxlpYsVskv-hnWhugoj_-51" value="&lt;font style=&quot;font-size: 10px;&quot;&gt;Выключить прибор при помощи&lt;br&gt;сетевого выключателя&lt;/font&gt;" style="text;html=1;strokeColor=none;fillColor=none;align=left;verticalAlign=middle;whiteSpace=wrap;rounded=0;fontFamily=Times New Roman;" vertex="1" parent="1">
          <mxGeometry x="50" y="720" width="170" height="30" as="geometry" />
        </mxCell>
        <mxCell id="RxlpYsVskv-hnWhugoj_-52" value="" style="endArrow=classic;html=1;rounded=0;fontFamily=Times New Roman;fontSize=10;entryX=0;entryY=0.152;entryDx=0;entryDy=0;entryPerimeter=0;" edge="1" parent="1">
          <mxGeometry width="50" height="50" relative="1" as="geometry">
            <mxPoint x="50" y="756.07" as="sourcePoint" />
            <mxPoint x="240" y="756.07" as="targetPoint" />
          </mxGeometry>
        </mxCell>
        <mxCell id="RxlpYsVskv-hnWhugoj_-53" value="" style="endArrow=classic;html=1;rounded=0;fontFamily=Times New Roman;fontSize=10;entryX=0;entryY=0.152;entryDx=0;entryDy=0;entryPerimeter=0;" edge="1" parent="1">
          <mxGeometry width="50" height="50" relative="1" as="geometry">
            <mxPoint x="310" y="714.58" as="sourcePoint" />
            <mxPoint x="500" y="714.58" as="targetPoint" />
          </mxGeometry>
        </mxCell>
        <mxCell id="RxlpYsVskv-hnWhugoj_-54" value="&lt;font style=&quot;font-size: 10px;&quot;&gt;Таймер гаснет. Прибор отключен&lt;/font&gt;" style="text;html=1;strokeColor=none;fillColor=none;align=left;verticalAlign=middle;whiteSpace=wrap;rounded=0;fontFamily=Times New Roman;" vertex="1" parent="1">
          <mxGeometry x="320" y="720" width="170" height="30" as="geometry" />
        </mxCell>
        <mxCell id="RxlpYsVskv-hnWhugoj_-55" value="" style="endArrow=classic;html=1;rounded=0;fontFamily=Times New Roman;fontSize=10;entryX=0;entryY=0.152;entryDx=0;entryDy=0;entryPerimeter=0;" edge="1" parent="1">
          <mxGeometry width="50" height="50" relative="1" as="geometry">
            <mxPoint x="310" y="754.58" as="sourcePoint" />
            <mxPoint x="500" y="754.58" as="targetPoint" />
          </mxGeometry>
        </mxCell>
        <mxCell id="RxlpYsVskv-hnWhugoj_-92" value="" style="rounded=0;whiteSpace=wrap;html=1;fillColor=#000000;" vertex="1" parent="1">
          <mxGeometry x="900" y="300" width="70" height="180" as="geometry" />
        </mxCell>
        <mxCell id="RxlpYsVskv-hnWhugoj_-94" value="&lt;font face=&quot;Times New Roman&quot;&gt;&lt;b&gt;Нежелательные входы&amp;nbsp;&lt;/b&gt;&lt;/font&gt;" style="text;html=1;strokeColor=none;fillColor=none;align=center;verticalAlign=middle;whiteSpace=wrap;rounded=0;" vertex="1" parent="1">
          <mxGeometry x="740" y="300" width="140" height="30" as="geometry" />
        </mxCell>
        <mxCell id="RxlpYsVskv-hnWhugoj_-95" value="&lt;font face=&quot;Times New Roman&quot;&gt;&lt;b&gt;Нежелательные выходы&amp;nbsp;&lt;/b&gt;&lt;/font&gt;" style="text;html=1;strokeColor=none;fillColor=none;align=center;verticalAlign=middle;whiteSpace=wrap;rounded=0;" vertex="1" parent="1">
          <mxGeometry x="1000" y="300" width="140" height="30" as="geometry" />
        </mxCell>
        <mxCell id="RxlpYsVskv-hnWhugoj_-96" value="Короткое замыкание" style="text;html=1;strokeColor=none;fillColor=none;align=left;verticalAlign=middle;whiteSpace=wrap;rounded=0;fontFamily=Times New Roman;" vertex="1" parent="1">
          <mxGeometry x="710.49" y="329.96000000000004" width="170" height="30" as="geometry" />
        </mxCell>
        <mxCell id="RxlpYsVskv-hnWhugoj_-97" value="" style="endArrow=classic;html=1;rounded=0;fontFamily=Times New Roman;fontSize=10;entryX=-0.014;entryY=0.088;entryDx=0;entryDy=0;entryPerimeter=0;" edge="1" parent="1">
          <mxGeometry width="50" height="50" relative="1" as="geometry">
            <mxPoint x="710.49" y="359.96000000000004" as="sourcePoint" />
            <mxPoint x="899.51" y="359.2400000000001" as="targetPoint" />
          </mxGeometry>
        </mxCell>
        <mxCell id="RxlpYsVskv-hnWhugoj_-98" value="" style="endArrow=classic;html=1;rounded=0;fontFamily=Times New Roman;fontSize=10;entryX=0;entryY=0.152;entryDx=0;entryDy=0;entryPerimeter=0;" edge="1" parent="1">
          <mxGeometry width="50" height="50" relative="1" as="geometry">
            <mxPoint x="710" y="389.98" as="sourcePoint" />
            <mxPoint x="900" y="389.98" as="targetPoint" />
          </mxGeometry>
        </mxCell>
        <mxCell id="RxlpYsVskv-hnWhugoj_-101" value="Неумелое использование" style="text;html=1;strokeColor=none;fillColor=none;align=left;verticalAlign=middle;whiteSpace=wrap;rounded=0;fontSize=10;fontFamily=Times New Roman;" vertex="1" parent="1">
          <mxGeometry x="710" y="359.98" width="190" height="30" as="geometry" />
        </mxCell>
        <mxCell id="RxlpYsVskv-hnWhugoj_-102" value="&lt;font style=&quot;font-size: 10px;&quot;&gt;Нарушение правил эксплуатации&lt;br&gt;прибора&lt;/font&gt;" style="text;html=1;strokeColor=none;fillColor=none;align=left;verticalAlign=middle;whiteSpace=wrap;rounded=0;fontFamily=Times New Roman;" vertex="1" parent="1">
          <mxGeometry x="710" y="389.98" width="170" height="30" as="geometry" />
        </mxCell>
        <mxCell id="RxlpYsVskv-hnWhugoj_-103" value="" style="endArrow=classic;html=1;rounded=0;fontFamily=Times New Roman;fontSize=10;entryX=0;entryY=0.152;entryDx=0;entryDy=0;entryPerimeter=0;" edge="1" parent="1">
          <mxGeometry width="50" height="50" relative="1" as="geometry">
            <mxPoint x="710" y="419.98" as="sourcePoint" />
            <mxPoint x="900" y="419.98" as="targetPoint" />
          </mxGeometry>
        </mxCell>
        <mxCell id="RxlpYsVskv-hnWhugoj_-109" value="" style="endArrow=classic;html=1;rounded=0;fontFamily=Times New Roman;fontSize=10;entryX=0;entryY=0.152;entryDx=0;entryDy=0;entryPerimeter=0;" edge="1" parent="1">
          <mxGeometry width="50" height="50" relative="1" as="geometry">
            <mxPoint x="970" y="400.07" as="sourcePoint" />
            <mxPoint x="1160" y="400.07" as="targetPoint" />
          </mxGeometry>
        </mxCell>
        <mxCell id="RxlpYsVskv-hnWhugoj_-128" value="Механическое повреждение" style="text;html=1;strokeColor=none;fillColor=none;align=left;verticalAlign=middle;whiteSpace=wrap;rounded=0;fontFamily=Times New Roman;" vertex="1" parent="1">
          <mxGeometry x="710.98" y="419.98" width="170" height="30" as="geometry" />
        </mxCell>
        <mxCell id="RxlpYsVskv-hnWhugoj_-129" value="" style="endArrow=classic;html=1;rounded=0;fontFamily=Times New Roman;fontSize=10;entryX=-0.014;entryY=0.088;entryDx=0;entryDy=0;entryPerimeter=0;" edge="1" parent="1">
          <mxGeometry width="50" height="50" relative="1" as="geometry">
            <mxPoint x="710.98" y="449.98" as="sourcePoint" />
            <mxPoint x="900" y="449.2600000000001" as="targetPoint" />
          </mxGeometry>
        </mxCell>
        <mxCell id="RxlpYsVskv-hnWhugoj_-130" value="&lt;span style=&quot;font-size: 10px;&quot;&gt;Выход прибора из строия&lt;/span&gt;" style="text;html=1;strokeColor=none;fillColor=none;align=left;verticalAlign=middle;whiteSpace=wrap;rounded=0;fontFamily=Times New Roman;" vertex="1" parent="1">
          <mxGeometry x="980" y="370" width="170" height="30" as="geometry" />
        </mxCell>
        <mxCell id="RxlpYsVskv-hnWhugoj_-132" value="" style="rounded=0;whiteSpace=wrap;html=1;labelBackgroundColor=#ffffff;fontFamily=Times New Roman;fontSize=10;fontColor=#ffffff;fillColor=none;" vertex="1" parent="1">
          <mxGeometry x="1050" y="530" width="650" height="520" as="geometry" />
        </mxCell>
        <mxCell id="RxlpYsVskv-hnWhugoj_-135" value="&lt;font style=&quot;&quot; color=&quot;#000000&quot;&gt;&lt;font style=&quot;font-size: 24px;&quot;&gt;Микроволновка&lt;/font&gt;&lt;br&gt;&lt;/font&gt;" style="text;html=1;strokeColor=none;fillColor=none;align=center;verticalAlign=middle;whiteSpace=wrap;rounded=0;fontSize=10;fontFamily=Times New Roman;fontColor=#ffffff;" vertex="1" parent="1">
          <mxGeometry x="1345" y="530" width="60" height="30" as="geometry" />
        </mxCell>
        <mxCell id="RxlpYsVskv-hnWhugoj_-136" value="" style="rounded=0;whiteSpace=wrap;html=1;labelBackgroundColor=#ffffff;fontFamily=Times New Roman;fontSize=24;fontColor=#000000;fillColor=none;" vertex="1" parent="1">
          <mxGeometry x="1080" y="570" width="600" height="410" as="geometry" />
        </mxCell>
        <mxCell id="RxlpYsVskv-hnWhugoj_-137" value="Блок питания" style="rounded=0;whiteSpace=wrap;html=1;labelBackgroundColor=#ffffff;fontFamily=Times New Roman;fontSize=24;fontColor=#000000;fillColor=none;" vertex="1" parent="1">
          <mxGeometry x="1290" y="1000" width="210" height="40" as="geometry" />
        </mxCell>
        <mxCell id="RxlpYsVskv-hnWhugoj_-138" value="Корпус" style="text;html=1;strokeColor=none;fillColor=none;align=center;verticalAlign=middle;whiteSpace=wrap;rounded=0;fontSize=24;fontFamily=Times New Roman;fontColor=#000000;" vertex="1" parent="1">
          <mxGeometry x="1350" y="570" width="60" height="30" as="geometry" />
        </mxCell>
        <mxCell id="RxlpYsVskv-hnWhugoj_-139" value="Д&lt;br&gt;в&lt;br&gt;е&lt;br&gt;р&lt;br&gt;ц&lt;br&gt;а" style="rounded=0;whiteSpace=wrap;html=1;labelBackgroundColor=#ffffff;fontFamily=Times New Roman;fontSize=24;fontColor=#000000;fillColor=none;" vertex="1" parent="1">
          <mxGeometry x="1610" y="612" width="30" height="356" as="geometry" />
        </mxCell>
        <mxCell id="RxlpYsVskv-hnWhugoj_-141" value="" style="rounded=0;whiteSpace=wrap;html=1;labelBackgroundColor=#ffffff;fontFamily=Times New Roman;fontSize=24;fontColor=#000000;fillColor=none;" vertex="1" parent="1">
          <mxGeometry x="1090" y="600" width="230" height="306" as="geometry" />
        </mxCell>
        <mxCell id="RxlpYsVskv-hnWhugoj_-142" value="&lt;font style=&quot;font-size: 11px;&quot;&gt;Панель управления&lt;/font&gt;" style="text;html=1;strokeColor=none;fillColor=none;align=center;verticalAlign=middle;whiteSpace=wrap;rounded=0;fontSize=24;fontFamily=Times New Roman;fontColor=#000000;" vertex="1" parent="1">
          <mxGeometry x="1110" y="593.93" width="160" height="30" as="geometry" />
        </mxCell>
        <mxCell id="RxlpYsVskv-hnWhugoj_-143" value="" style="rounded=0;whiteSpace=wrap;html=1;labelBackgroundColor=#ffffff;fontFamily=Times New Roman;fontSize=11;fontColor=#000000;fillColor=none;" vertex="1" parent="1">
          <mxGeometry x="1100" y="629.93" width="120" height="260.07" as="geometry" />
        </mxCell>
        <mxCell id="RxlpYsVskv-hnWhugoj_-144" value="Кнопки выбора режима" style="text;html=1;strokeColor=none;fillColor=none;align=center;verticalAlign=middle;whiteSpace=wrap;rounded=0;fontSize=11;fontFamily=Times New Roman;fontColor=#000000;" vertex="1" parent="1">
          <mxGeometry x="1100" y="629.93" width="110" height="30" as="geometry" />
        </mxCell>
        <mxCell id="RxlpYsVskv-hnWhugoj_-145" value="" style="rounded=0;whiteSpace=wrap;html=1;labelBackgroundColor=#ffffff;fontFamily=Times New Roman;fontSize=11;fontColor=#000000;fillColor=none;" vertex="1" parent="1">
          <mxGeometry x="1230" y="629.93" width="80" height="140.07" as="geometry" />
        </mxCell>
        <mxCell id="RxlpYsVskv-hnWhugoj_-146" value="Кнопки запуска/отключения" style="text;html=1;strokeColor=none;fillColor=none;align=center;verticalAlign=middle;whiteSpace=wrap;rounded=0;fontSize=11;fontFamily=Times New Roman;fontColor=#000000;" vertex="1" parent="1">
          <mxGeometry x="1241" y="640" width="60" height="30" as="geometry" />
        </mxCell>
        <mxCell id="RxlpYsVskv-hnWhugoj_-147" value="Кнопка START" style="rounded=0;whiteSpace=wrap;html=1;labelBackgroundColor=#ffffff;fontFamily=Times New Roman;fontSize=11;fontColor=#000000;fillColor=none;" vertex="1" parent="1">
          <mxGeometry x="1241" y="680" width="60" height="30" as="geometry" />
        </mxCell>
        <mxCell id="RxlpYsVskv-hnWhugoj_-148" value="Кнопка STOP" style="rounded=0;whiteSpace=wrap;html=1;labelBackgroundColor=#ffffff;fontFamily=Times New Roman;fontSize=11;fontColor=#000000;fillColor=none;" vertex="1" parent="1">
          <mxGeometry x="1240" y="720" width="60" height="30" as="geometry" />
        </mxCell>
        <mxCell id="RxlpYsVskv-hnWhugoj_-150" value="Поворотный регулятор" style="rounded=0;whiteSpace=wrap;html=1;labelBackgroundColor=#ffffff;fontFamily=Times New Roman;fontSize=11;fontColor=#000000;fillColor=none;" vertex="1" parent="1">
          <mxGeometry x="1230" y="780" width="80" height="50" as="geometry" />
        </mxCell>
        <mxCell id="RxlpYsVskv-hnWhugoj_-151" value="Таймер" style="rounded=0;whiteSpace=wrap;html=1;labelBackgroundColor=#ffffff;fontFamily=Times New Roman;fontSize=11;fontColor=#000000;fillColor=none;" vertex="1" parent="1">
          <mxGeometry x="1230" y="840" width="80" height="50" as="geometry" />
        </mxCell>
        <mxCell id="RxlpYsVskv-hnWhugoj_-152" value="&amp;nbsp;Напитки" style="rounded=0;whiteSpace=wrap;html=1;labelBackgroundColor=#ffffff;fontFamily=Times New Roman;fontSize=11;fontColor=#000000;fillColor=none;" vertex="1" parent="1">
          <mxGeometry x="1110" y="674.93" width="100" height="30" as="geometry" />
        </mxCell>
        <mxCell id="RxlpYsVskv-hnWhugoj_-153" value="Разморозка" style="rounded=0;whiteSpace=wrap;html=1;labelBackgroundColor=#ffffff;fontFamily=Times New Roman;fontSize=11;fontColor=#000000;fillColor=none;" vertex="1" parent="1">
          <mxGeometry x="1110" y="720" width="100" height="30" as="geometry" />
        </mxCell>
        <mxCell id="RxlpYsVskv-hnWhugoj_-154" value="СВЧ" style="rounded=0;whiteSpace=wrap;html=1;labelBackgroundColor=#ffffff;fontFamily=Times New Roman;fontSize=11;fontColor=#000000;fillColor=none;" vertex="1" parent="1">
          <mxGeometry x="1110" y="760" width="100" height="30" as="geometry" />
        </mxCell>
        <mxCell id="RxlpYsVskv-hnWhugoj_-155" value="Устранение запахов" style="rounded=0;whiteSpace=wrap;html=1;labelBackgroundColor=#ffffff;fontFamily=Times New Roman;fontSize=11;fontColor=#000000;fillColor=none;" vertex="1" parent="1">
          <mxGeometry x="1110" y="800" width="100" height="30" as="geometry" />
        </mxCell>
        <mxCell id="RxlpYsVskv-hnWhugoj_-156" value="Простой" style="rounded=0;whiteSpace=wrap;html=1;labelBackgroundColor=#ffffff;fontFamily=Times New Roman;fontSize=11;fontColor=#000000;fillColor=none;" vertex="1" parent="1">
          <mxGeometry x="1110" y="840" width="100" height="30" as="geometry" />
        </mxCell>
        <mxCell id="RxlpYsVskv-hnWhugoj_-158" value="" style="rounded=0;whiteSpace=wrap;html=1;labelBackgroundColor=#ffffff;fontFamily=Times New Roman;fontSize=11;fontColor=#000000;fillColor=none;" vertex="1" parent="1">
          <mxGeometry x="1380" y="638" width="200" height="230" as="geometry" />
        </mxCell>
        <mxCell id="RxlpYsVskv-hnWhugoj_-160" value="Внутренняя часть" style="text;html=1;strokeColor=none;fillColor=none;align=center;verticalAlign=middle;whiteSpace=wrap;rounded=0;fontSize=11;fontFamily=Times New Roman;fontColor=#000000;" vertex="1" parent="1">
          <mxGeometry x="1417.5" y="650" width="125" height="30" as="geometry" />
        </mxCell>
        <mxCell id="RxlpYsVskv-hnWhugoj_-161" value="Подстветка" style="rounded=0;whiteSpace=wrap;html=1;labelBackgroundColor=#ffffff;fontFamily=Times New Roman;fontSize=11;fontColor=#000000;fillColor=none;" vertex="1" parent="1">
          <mxGeometry x="1420" y="810" width="120" height="40" as="geometry" />
        </mxCell>
        <mxCell id="RxlpYsVskv-hnWhugoj_-162" value="Вращательный механизм" style="rounded=0;whiteSpace=wrap;html=1;labelBackgroundColor=#ffffff;fontFamily=Times New Roman;fontSize=11;fontColor=#000000;fillColor=none;" vertex="1" parent="1">
          <mxGeometry x="1390" y="740" width="180" height="50" as="geometry" />
        </mxCell>
        <mxCell id="RxlpYsVskv-hnWhugoj_-163" value="Тарелка" style="rounded=0;whiteSpace=wrap;html=1;labelBackgroundColor=#ffffff;fontFamily=Times New Roman;fontSize=11;fontColor=#000000;fillColor=none;" vertex="1" parent="1">
          <mxGeometry x="1432.5" y="685.07" width="95" height="34.93" as="geometry" />
        </mxCell>
      </root>
    </mxGraphModel>
  </diagram>
</mxfile>
